# xmcd
#
# Track frame offsets: 
#        182
#        14027
#        29587
#        56280
#        80627
#        105250
#        130392
#        150647
#        196672
#        216837
#        253077
#
# Disc length: 4225 seconds
#
# Revision: 2
# Processed by: cddbd v1.5.2PL0 Copyright (c) Steve Scherf et al.
# Submitted via: ExactAudioCopy v0.99pb4
#
DISCID=91107f0b
DTITLE=Fat Back Band - Fat Back Live
DYEAR=1987
DGENRE=Blues
TTITLE0=Backstrokin'
TTITLE1=Wicky Wacky
TTITLE2=The Girl Is Fine
TTITLE3=Is This The Future
TTITLE4=Let's Play Tonight
TTITLE5=So Delicious
TTITLE6=Spanish Hustle
TTITLE7=Bus Stop
TTITLE8=Let Your Body Talk
TTITLE9=Jump Up Baby Jump Up
TTITLE10=I Found Lovin'
EXTD=Recorded live at the Hammersmith Odeon in London with introductio
EXTD=ns and a track my DJ Steve Walsh who sadly died in a car crash wh
EXTD=ilst on holiday in spain not long after
EXTT0=The Fatback Band
EXTT1=The Fatback Band
EXTT2=The Fatback Band
EXTT3=The Fatback Band
EXTT4=The Fatback Band
EXTT5=The Fatback Band
EXTT6=The Fatback Band
EXTT7=The Fatback Band
EXTT8=The Fatback Band
EXTT9=The Fatback Band
EXTT10=The Fatback Band
PLAYORDER=
